Coordinates
version=1
nRows=17
nColumns=38
inDegrees=no

Units are S.I. units (second, meters, Newtons, ...)
If the header above contains a line with 'inDegrees', this indicates whether rotational values are in degrees (yes) or radians (no).

endheader
time	pelvis_tilt	pelvis_list	pelvis_rotation	pelvis_tx	pelvis_ty	pelvis_tz	hip_flexion_r	hip_adduction_r	hip_rotation_r	knee_angle_r	ankle_angle_r	subtalar_angle_r	mtp_angle_r	hip_flexion_l	hip_adduction_l	hip_rotation_l	knee_angle_l	ankle_angle_l	subtalar_angle_l	mtp_angle_l	lumbar_extension	lumbar_bending	lumbar_rotation	arm_flex_r	arm_add_r	arm_rot_r	elbow_flex_r	pro_sup_r	wrist_flex_r	wrist_dev_r	arm_flex_l	arm_add_l	arm_rot_l	elbow_flex_l	pro_sup_l	wrist_flex_l	wrist_dev_l
0.53	2.89729	1.28773	-1.1529	0.576009	0.547203	0.927162	0.123579	0.0135307	-0.175542	0.356513	-0.236484	0	0	-0.523599	-0.207148	-0.430786	0.458228	-0.130545	0	0	-0.472551	0.190241	-0.223931	-0.220018	-0.239428	-0.221184	0.909318	0.372719	0	0	0.0600967	-0.34325	0.073792	1.0551	1.44487	0	0
0.54	2.89014	1.28568	-1.14277	0.576602	0.5608	0.927433	0.118379	0.017887	-0.182937	0.369203	-0.252203	0	0	-0.523599	-0.217008	-0.426779	0.48396	-0.149385	0	0	-0.467414	0.193617	-0.229604	-0.224789	-0.239863	-0.215769	0.906482	0.376444	0	0	0.0463511	-0.338178	0.0679757	1.05498	1.44523	0	0
0.55	2.8832	1.28142	-1.13318	0.577223	0.574506	0.928094	0.110041	0.0234283	-0.190899	0.382878	-0.266659	0	0	-0.523599	-0.227323	-0.419982	0.512624	-0.172029	0	0	-0.464107	0.197667	-0.234638	-0.23	-0.240895	-0.210158	0.904134	0.380559	0	0	0.0322268	-0.333549	0.0635837	1.05376	1.44596	0	0
0.56	2.87657	1.27478	-1.12559	0.577876	0.588106	0.929122	0.0998631	0.0302715	-0.195068	0.399643	-0.278257	0	0	-0.523599	-0.237355	-0.410286	0.545006	-0.197906	0	0	-0.46307	0.202114	-0.238312	-0.233806	-0.240883	-0.207586	0.902003	0.381337	0	0	0.0177213	-0.329182	0.0598158	1.05173	1.44639	0	0
0.57	2.87068	1.26577	-1.12052	0.578857	0.601601	0.930458	0.0876685	0.0383668	-0.194079	0.418196	-0.286591	0	0	-0.523599	-0.246876	-0.395755	0.581502	-0.226287	0	0	-0.464592	0.206548	-0.239764	-0.237527	-0.240545	-0.206399	0.900281	0.380906	0	0	0.00362068	-0.324987	0.0568105	1.04894	1.44659	0	0
0.58	2.83033	1.22345	-1.08528	0.57995	0.615448	0.930548	0.0561477	0.0727398	-0.198354	0.454768	-0.285944	0	0	-0.492266	-0.307921	-0.38784	0.796842	-0.28796	0	0	-0.476886	0.23363	-0.237169	-0.257435	-0.249214	-0.209258	0.929206	0.378789	0	0	-0.0165712	-0.322224	0.0554347	1.05703	1.44146	0	0
0.59	2.85501	1.21424	-1.11982	0.581574	0.629046	0.934642	0.0327738	0.0729563	-0.190625	0.461114	-0.288155	0	0	-0.523599	-0.271288	-0.35074	0.669402	-0.301879	0	0	-0.487397	0.224357	-0.229285	-0.256456	-0.24665	-0.20849	0.917098	0.377477	0	0	-0.0250215	-0.31747	0.0574859	1.04465	1.44254	0	0
0.6	2.85665	1.20337	-1.12725	0.583228	0.641754	0.93689	0.0117682	0.081634	-0.187044	0.466074	-0.288753	0	0	-0.523599	-0.271578	-0.322728	0.693557	-0.329583	0	0	-0.496198	0.224612	-0.223639	-0.258291	-0.244264	-0.210521	0.915414	0.375044	0	0	-0.0367372	-0.315502	0.0578948	1.04132	1.44323	0	0
0.61	2.85041	1.19294	-1.12338	0.584485	0.653954	0.93864	-0.00987643	0.0927706	-0.189232	0.46615	-0.286982	0	0	-0.523599	-0.279073	-0.294416	0.741942	-0.36993	0	0	-0.504583	0.229863	-0.218027	-0.264624	-0.243707	-0.212511	0.921082	0.374911	0	0	-0.047081	-0.313536	0.0599538	1.03959	1.44256	0	0
0.62	2.84493	1.18361	-1.11984	0.585535	0.665988	0.940158	-0.0327984	0.102583	-0.194059	0.463515	-0.283162	0	0	-0.523599	-0.286509	-0.268526	0.796013	-0.400205	0	0	-0.512047	0.235211	-0.211822	-0.272034	-0.243942	-0.214642	0.928905	0.375812	0	0	-0.0560491	-0.310945	0.063193	1.03671	1.44037	0	0
0.63	2.84446	1.17248	-1.11974	0.586361	0.677793	0.941751	-0.06094	0.111021	-0.202259	0.457581	-0.274906	0	0	-0.522583	-0.293507	-0.243772	0.852254	-0.428987	0	0	-0.522961	0.240862	-0.203603	-0.282971	-0.243476	-0.220467	0.941919	0.377083	0	0	-0.061879	-0.309992	0.0720117	1.03386	1.43379	0	0
0.64	2.84183	1.16738	-1.11863	0.587269	0.689496	0.942909	-0.0819224	0.117096	-0.207082	0.455148	-0.265955	0	0	-0.497714	-0.29906	-0.223663	0.912413	-0.437743	0	0	-0.527123	0.243413	-0.196457	-0.290669	-0.24308	-0.224204	0.948809	0.379242	0	0	-0.0683388	-0.308912	0.0798718	1.02841	1.4286	0	0
0.65	2.84188	1.16355	-1.12064	0.588167	0.700924	0.944121	-0.101917	0.121416	-0.210268	0.452314	-0.256473	0	0	-0.47105	-0.302924	-0.206571	0.971787	-0.442981	0	0	-0.53093	0.243849	-0.189312	-0.296471	-0.241876	-0.228444	0.953266	0.379966	0	0	-0.0742612	-0.308449	0.0880499	1.02199	1.42333	0	0
0.66	2.84471	1.16041	-1.12606	0.589114	0.712077	0.945524	-0.121532	0.124686	-0.21171	0.44789	-0.248747	0	0	-0.443493	-0.305249	-0.193227	1.02873	-0.444463	0	0	-0.535023	0.242232	-0.18221	-0.299937	-0.239757	-0.232936	0.95503	0.379414	0	0	-0.079656	-0.30824	0.095794	1.01469	1.41812	0	0
0.67	2.85045	1.15764	-1.13461	0.590062	0.723002	0.947166	-0.14137	0.127008	-0.211787	0.441064	-0.243752	0	0	-0.415773	-0.305936	-0.183003	1.08184	-0.432472	0	0	-0.539542	0.238794	-0.175625	-0.301472	-0.237367	-0.236644	0.954349	0.379073	0	0	-0.0848213	-0.308023	0.102545	1.00652	1.41337	0	0
0.68	2.85861	1.15518	-1.14529	0.590943	0.733737	0.948968	-0.161637	0.128239	-0.210948	0.431576	-0.241623	0	0	-0.388124	-0.30494	-0.174607	1.13025	-0.400066	0	0	-0.544091	0.234038	-0.170156	-0.301093	-0.233864	-0.241877	0.951598	0.377882	0	0	-0.0900425	-0.307887	0.108449	0.997691	1.40784	0	0
0.69	2.86914	1.15266	-1.15765	0.591757	0.744337	0.950882	-0.183195	0.128542	-0.210096	0.42011	-0.241402	0	0	-0.361011	-0.302967	-0.168476	1.17381	-0.353849	0	0	-0.548851	0.228302	-0.165941	-0.299749	-0.229121	-0.248623	0.947572	0.375444	0	0	-0.0954106	-0.307623	0.112629	0.988699	1.4025	0	0
